Coordinates
version=1
nRows=16
nColumns=40
inDegrees=yes

Units are S.I. units (second, meters, Newtons, ...)
Angles are in degrees.

endheader
time	pelvis_tilt	pelvis_list	pelvis_rotation	pelvis_tx	pelvis_ty	pelvis_tz	hip_flexion_r	hip_adduction_r	hip_rotation_r	knee_angle_r	knee_angle_r_beta	ankle_angle_r	subtalar_angle_r	mtp_angle_r	hip_flexion_l	hip_adduction_l	hip_rotation_l	knee_angle_l	knee_angle_l_beta	ankle_angle_l	subtalar_angle_l	mtp_angle_l	lumbar_extension	lumbar_bending	lumbar_rotation	arm_flex_r	arm_add_r	arm_rot_r	elbow_flex_r	pro_sup_r	wrist_flex_r	wrist_dev_r	arm_flex_l	arm_add_l	arm_rot_l	elbow_flex_l	pro_sup_l	wrist_flex_l	wrist_dev_l
     49.80000000	     -4.89699929	     -6.65392937	      3.69122211	      1.02026081	      0.92905399	      0.48653630	     14.05591252	      4.61482619	    -20.81424172	     13.26769103	     13.26769103	      7.64785080	      6.34257293	     -6.64663058	     31.32473908	    -14.12989880	      2.23118329	     64.59865262	     64.59865262	      9.55797382	    -17.91487605	     10.54771461	    -12.65974868	      7.55662741	      5.67034398	     18.15328604	    -17.02395171	     -3.97735217	     40.52018413	     45.72146112	      0.00000000	      0.00000000	      3.25910989	     -9.31372101	     -0.35869201	     53.19622904	     46.42092539	      0.00000000	      0.00000000
     49.81192857	     -4.90252344	     -6.63649899	      3.95591887	      1.01941532	      0.92944064	      0.48698445	     13.26909981	      4.75054881	    -20.87948446	     12.78774897	     12.78774897	      7.91680266	      6.42205203	     -6.72508694	     32.78948981	    -13.90222474	      2.48805632	     62.88667691	     62.88667691	      9.65296546	    -18.00192196	     10.64517502	    -12.69414997	      7.43772609	      5.30644144	     20.52170601	    -16.85156536	     -3.91331500	     41.85613545	     45.68258565	      0.00000000	      0.00000000	      1.55781737	     -9.31559173	     -0.05437743	     50.62897892	     46.35975387	      0.00000000	      0.00000000
     49.82385714	     -4.89136563	     -6.63609970	      4.18471882	      1.01863766	      0.92982265	      0.48742911	     12.42162979	      4.94353144	    -20.85417263	     12.20107230	     12.20107230	      8.06897280	      6.39268553	     -6.88461935	     34.01722857	    -13.69212861	      2.67716371	     60.86588882	     60.86588882	      9.64576808	    -18.04362981	     10.65344894	    -12.70186769	      7.35453802	      5.52156009	     22.52530215	    -17.18225008	     -3.14386765	     43.07611170	     45.61309658	      0.00000000	      0.00000000	      1.06563695	     -8.84215292	      0.06755560	     45.71481889	     46.32962875	      0.00000000	      0.00000000
     49.83578571	     -4.86191873	     -6.61189287	      4.42225483	      1.01789080	      0.93014378	      0.48779415	     11.55993312	      5.11181221	    -20.81153276	     11.62093043	     11.62093043	      8.29730949	      6.37141877	     -6.83674999	     35.03574390	    -13.40315231	      2.86067219	     58.57612340	     58.57612340	      9.64483518	    -18.10521997	     10.98271303	    -12.80788641	      7.22447447	      5.26056105	     24.71809745	    -17.02877086	     -3.09423537	     44.57313461	     45.56860775	      0.00000000	      0.00000000	     -0.55066578	     -8.81756221	      0.29738661	     43.51384783	     46.27729385	      0.00000000	      0.00000000
     49.84771429	     -4.88047908	     -6.63837873	      4.62930059	      1.01719202	      0.93032843	      0.48808700	     10.73528426	      5.34642390	    -20.71140765	     10.98215998	     10.98215998	      8.42363026	      6.27281718	     -6.94019153	     35.94408706	    -13.15644584	      3.01516547	     56.04313694	     56.04313694	      9.66395411	    -18.02905970	     11.41601905	    -12.78317156	      7.17683856	      5.58493511	     26.43553474	    -17.51746847	     -2.31965294	     46.21340112	     45.48664581	      0.00000000	      0.00000000	     -0.72188575	     -8.30862464	      0.41925665	     38.37445559	     46.24868808	      0.00000000	      0.00000000
     49.85964286	     -4.89137573	     -6.65498599	      4.83572912	      1.01656166	      0.93039331	      0.48821256	      9.90707990	      5.55447666	    -20.63622304	     10.36357570	     10.36357570	      8.61285996	      6.26017171	     -6.90646467	     36.67290037	    -12.82236220	      3.22163009	     53.26887569	     53.26887569	      9.67228532	    -17.96375570	     11.82851555	    -12.83317673	      7.10503646	      5.36703668	     28.44675034	    -17.38379004	     -2.30453079	     47.89973295	     45.43765286	      0.00000000	      0.00000000	     -2.21227949	     -8.23300944	      0.56342767	     36.36796122	     46.20474878	      0.00000000	      0.00000000
     49.87157143	     -4.94818818	     -6.66551018	      5.00383419	      1.01598893	      0.93032379	      0.48824217	      9.10892310	      5.76613636	    -20.49759092	      9.69728781	      9.69728781	      8.69562054	      6.12920394	     -7.07134639	     37.26737444	    -12.50187963	      3.32100981	     50.23276890	     50.23276890	      9.62973573	    -17.73339325	     12.01282485	    -12.79488038	      7.03687381	      5.75940219	     29.78053517	    -17.89663911	     -1.82750424	     50.25890531	     45.34792011	      0.00000000	      0.00000000	     -2.57950486	     -7.85500615	      0.64764270	     32.42381207	     46.17756434	      0.00000000	      0.00000000
     49.88350000	     -5.03954212	     -6.62025825	      5.15812702	      1.01544628	      0.93014012	      0.48808324	      8.39253948	      5.86888645	    -20.39304411	      9.15431160	      9.15431160	      8.91534104	      6.13069501	     -7.06359229	     37.71348817	    -12.06371593	      3.43788034	     46.96094477	     46.96094477	      9.65612488	    -17.40074084	     12.37695918	    -12.73589167	      6.88144187	      5.67965981	     31.58170735	    -17.78750506	     -1.93219467	     51.78112683	     45.30941355	      0.00000000	      0.00000000	     -4.09877346	     -7.81938563	      0.74606550	     31.22945305	     46.13656878	      0.00000000	      0.00000000
     49.89542857	     -5.09243760	     -6.74192681	      5.35779075	      1.01508969	      0.92978821	      0.48774857	      7.53905278	      6.19009172	    -20.31633372	      8.40837757	      8.40837757	      9.03473733	      6.15899365	     -7.07741998	     38.03736060	    -11.71268154	      3.76900265	     43.56506370	     43.56506370	      9.74868080	    -16.92163208	     12.41107567	    -12.69978619	      6.96961515	      5.32403859	     33.27794503	    -17.52984039	     -1.87366378	     54.11605176	     45.23624088	      0.00000000	      0.00000000	     -5.48132319	     -7.69661991	      0.93356865	     29.45492378	     46.08340833	      0.00000000	      0.00000000
     49.90735714	     -5.22303609	     -6.80399010	      5.49258769	      1.01478607	      0.92926134	      0.48730459	      6.81503509	      6.41091307	    -20.18107540	      7.76250349	      7.76250349	      9.09434193	      6.07110408	     -7.40653914	     38.23219126	    -11.39915416	      3.81235699	     39.92492958	     39.92492958	      9.32317793	    -16.11592145	     11.42139643	    -12.59613534	      6.98062918	      6.02905643	     33.75459568	    -18.44608209	     -1.63695565	     58.10491729	     45.11014449	      0.00000000	      0.00000000	     -6.03353281	     -7.46378554	      1.27695306	     27.04106742	     46.00811875	      0.00000000	      0.00000000
     49.91928571	     -5.36163925	     -6.81806895	      5.59891371	      1.01456101	      0.92865023	      0.48672016	      6.16714868	      6.52549530	    -20.08283075	      7.31155345	      7.31155345	      9.35505582	      6.14232300	     -7.44864466	     38.30927640	    -11.02469987	      3.83603242	     36.29575346	     36.29575346	      9.47784521	    -14.93551502	     11.75920315	    -12.42592995	      6.90617363	      5.95328793	     35.40979578	    -18.26423304	     -1.79033832	     59.65377256	     45.07361612	      0.00000000	      0.00000000	     -7.49077637	     -7.41978555	      1.38281318	     26.29592677	     45.96285082	      0.00000000	      0.00000000
     49.93121429	     -5.43538877	     -6.91393007	      5.74653271	      1.01458979	      0.92793172	      0.48591545	      5.38706270	      6.74406980	    -20.03012894	      6.75140120	      6.75140120	      9.59731209	      6.27216883	     -7.47701259	     38.24643124	    -10.72272244	      3.82981824	     32.74221733	     32.74221733	      9.62298696	    -13.56112915	     12.04140986	    -12.29900685	      6.99137583	      5.68999049	     36.93005378	    -17.91948840	     -1.84932681	     61.77505456	     45.01354993	      0.00000000	      0.00000000	     -9.00171063	     -7.33698083	      1.52803317	     25.55562943	     45.90887677	      0.00000000	      0.00000000
     49.94314286	     -5.44575689	     -7.16063230	      5.92308864	      1.01481487	      0.92707575	      0.48502102	      4.46720895	      7.15504194	    -20.05265254	      6.03749129	      6.03749129	      9.79412687	      6.53203756	     -7.46855320	     38.14380512	    -10.59370067	      3.75867571	     29.45411098	     29.45411098	      9.66491664	    -11.98393678	     12.13727498	    -12.29056769	      7.25546418	      5.48716209	     37.89498752	    -17.80074910	     -1.78930083	     65.65989070	     44.89534258	      0.00000000	      0.00000000	    -10.51759183	     -7.22245356	      1.85722794	     25.06728596	     45.81500332	      0.00000000	      0.00000000
     49.95507143	     -5.50542449	     -7.21333746	      5.99696461	      1.01518289	      0.92614757	      0.48395930	      3.76570986	      7.26098858	    -19.97059334	      5.75237696	      5.75237696	     10.16972972	      6.63953552	     -7.53889759	     37.87230768	    -10.31750098	      3.38598728	     26.26936484	     26.26936484	      9.69435118	    -10.46889103	     12.60245092	    -12.10825266	      7.27807120	      5.55915247	     39.05871890	    -17.76095117	     -1.86644553	     67.70755909	     44.84019092	      0.00000000	      0.00000000	    -11.83750877	     -7.15509063	      2.02607875	     24.69327213	     45.75684536	      0.00000000	      0.00000000
     49.96700000	     -5.54250938	     -7.41084379	      6.10798448	      1.01573216	      0.92506055	      0.48275305	      3.00658081	      7.52252616	    -20.02420621	      5.40532454	      5.40532454	     10.67549567	      7.01628532	     -7.10903659	     37.70844828	    -10.18317487	      2.91007334	     23.67327808	     23.67327808	      9.81037142	     -8.91818450	     13.37411368	    -12.04552687	      7.51675210	      6.31886460	     38.88202787	    -18.46469087	     -2.69997463	     73.08325877	     44.79581723	      0.00000000	      0.00000000	    -12.91126038	     -7.47135481	      4.81386582	     24.84137485	     45.23126080	      0.00000000	      0.00000000
     49.97892857	     -5.59918417	     -7.53569208	      6.17859851	      1.01640601	      0.92390813	      0.48137520	      2.34683968	      7.66221499	    -19.97883379	      5.23709683	      5.23709683	     11.09415553	      7.11684210	     -7.19280507	     37.43702526	     -9.97116181	      2.28995191	     21.35619651	     21.35619651	      9.64086326	     -7.74981776	     13.88307874	    -11.81214769	      7.65859372	      6.21242626	     40.20387822	    -18.17199387	     -2.67126369	     74.58044446	     44.75542842	      0.00000000	      0.00000000	    -14.14110702	     -7.28816618	      4.92103850	     24.61545470	     45.19073401	      0.00000000	      0.00000000
